<svg xmlns="http://www.w3.org/2000/svg" xmlns:xlink="http://www.w3.org/1999/xlink" viewBox="0 0 128 128"><defs><style>.cls-1{fill:url(#Degradado_sin_nombre_100);}.cls-2{fill:#fff;}</style><linearGradient id="Degradado_sin_nombre_100" x1="-11.71" y1="107.71" x2="139.71" y2="20.29" gradientUnits="userSpaceOnUse"><stop offset="0" stop-color="#94598b"/><stop offset="0.17" stop-color="#8b568e"/><stop offset="0.46" stop-color="#734f98"/><stop offset="0.81" stop-color="#4b44a7"/><stop offset="1" stop-color="#343db0"/></linearGradient></defs><title>128</title><rect class="cls-1" width="128" height="128"/><path class="cls-2" d="M14,47a1,1,0,0,0,1-1V42a1,1,0,0,0-2,0v4A1,1,0,0,0,14,47Z"/><path class="cls-2" d="M14,27a1,1,0,0,0,1-1V22a1,1,0,0,0-2,0v4A1,1,0,0,0,14,27Z"/><path class="cls-2" d="M14,37a1,1,0,0,0,1-1V32a1,1,0,0,0-2,0v4A1,1,0,0,0,14,37Z"/><path class="cls-2" d="M14,57a1,1,0,0,0,1-1V52a1,1,0,0,0-2,0v4A1,1,0,0,0,14,57Z"/><path class="cls-2" d="M16,13H13v3a1,1,0,0,0,2,0V15h1a1,1,0,0,0,0-2Z"/><path class="cls-2" d="M26,13H22a1,1,0,0,0,0,2h4a1,1,0,0,0,0-2Z"/><path class="cls-2" d="M56,13H52a1,1,0,0,0,0,2h4a1,1,0,0,0,0-2Z"/><path class="cls-2" d="M46,13H42a1,1,0,0,0,0,2h4a1,1,0,0,0,0-2Z"/><path class="cls-2" d="M36,13H32a1,1,0,0,0,0,2h4a1,1,0,0,0,0-2Z"/><path class="cls-2" d="M96,13H92a1,1,0,0,0,0,2h4a1,1,0,0,0,0-2Z"/><path class="cls-2" d="M76,13H72a1,1,0,0,0,0,2h4a1,1,0,0,0,0-2Z"/><path class="cls-2" d="M86,13H82a1,1,0,0,0,0,2h4a1,1,0,0,0,0-2Z"/><path class="cls-2" d="M112,13a1,1,0,0,0,0,2h1v1a1,1,0,0,0,2,0V13Z"/><path class="cls-2" d="M106,13h-4a1,1,0,0,0,0,2h4a1,1,0,0,0,0-2Z"/><path class="cls-2" d="M114,21a1,1,0,0,0-1,1v4a1,1,0,0,0,2,0V22A1,1,0,0,0,114,21Z"/><path class="cls-2" d="M114,31a1,1,0,0,0-1,1v4a1,1,0,0,0,2,0V32A1,1,0,0,0,114,31Z"/><path class="cls-2" d="M114,41a1,1,0,0,0-1,1v4a1,1,0,0,0,2,0V42A1,1,0,0,0,114,41Z"/><path class="cls-2" d="M114,51a1,1,0,0,0-1,1v4a1,1,0,0,0,2,0V52A1,1,0,0,0,114,51Z"/><path class="cls-2" d="M66,13H62a1,1,0,0,0,0,2h4a1,1,0,0,0,0-2Z"/><path class="cls-2" d="M114,111a1,1,0,0,0-1,1v1h-1a1,1,0,0,0,0,2h3v-3A1,1,0,0,0,114,111Z"/><path class="cls-2" d="M114,101a1,1,0,0,0-1,1v4a1,1,0,0,0,2,0v-4A1,1,0,0,0,114,101Z"/><path class="cls-2" d="M106,113h-4a1,1,0,0,0,0,2h4a1,1,0,0,0,0-2Z"/><path class="cls-2" d="M114,81a1,1,0,0,0-1,1v4a1,1,0,0,0,2,0V82A1,1,0,0,0,114,81Z"/><path class="cls-2" d="M114,71a1,1,0,0,0-1,1v4a1,1,0,0,0,2,0V72A1,1,0,0,0,114,71Z"/><path class="cls-2" d="M96,113H92a1,1,0,0,0,0,2h4a1,1,0,0,0,0-2Z"/><path class="cls-2" d="M114,91a1,1,0,0,0-1,1v4a1,1,0,0,0,2,0V92A1,1,0,0,0,114,91Z"/><path class="cls-2" d="M76,113H72a1,1,0,0,0,0,2h4a1,1,0,0,0,0-2Z"/><path class="cls-2" d="M86,113H82a1,1,0,0,0,0,2h4a1,1,0,0,0,0-2Z"/><path class="cls-2" d="M114,61a1,1,0,0,0-1,1v4a1,1,0,0,0,2,0V62A1,1,0,0,0,114,61Z"/><path class="cls-2" d="M14,77a1,1,0,0,0,1-1V72a1,1,0,0,0-2,0v4A1,1,0,0,0,14,77Z"/><path class="cls-2" d="M56,113H52a1,1,0,0,0,0,2h4a1,1,0,0,0,0-2Z"/><path class="cls-2" d="M14,87a1,1,0,0,0,1-1V82a1,1,0,0,0-2,0v4A1,1,0,0,0,14,87Z"/><path class="cls-2" d="M26,113H22a1,1,0,0,0,0,2h4a1,1,0,0,0,0-2Z"/><path class="cls-2" d="M16,113H15v-1a1,1,0,0,0-2,0v3h3a1,1,0,0,0,0-2Z"/><path class="cls-2" d="M14,97a1,1,0,0,0,1-1V92a1,1,0,0,0-2,0v4A1,1,0,0,0,14,97Z"/><path class="cls-2" d="M46,113H42a1,1,0,0,0,0,2h4a1,1,0,0,0,0-2Z"/><path class="cls-2" d="M36,113H32a1,1,0,0,0,0,2h4a1,1,0,0,0,0-2Z"/><path class="cls-2" d="M14,107a1,1,0,0,0,1-1v-4a1,1,0,0,0-2,0v4A1,1,0,0,0,14,107Z"/><path class="cls-2" d="M14,67a1,1,0,0,0,1-1V62a1,1,0,0,0-2,0v4A1,1,0,0,0,14,67Z"/><path class="cls-2" d="M66,113H62a1,1,0,0,0,0,2h4a1,1,0,0,0,0-2Z"/><path class="cls-2" d="M14,47a1,1,0,0,0,1-1V42a1,1,0,0,0-2,0v4A1,1,0,0,0,14,47Z"/><path class="cls-2" d="M14,27a1,1,0,0,0,1-1V22a1,1,0,0,0-2,0v4A1,1,0,0,0,14,27Z"/><path class="cls-2" d="M14,37a1,1,0,0,0,1-1V32a1,1,0,0,0-2,0v4A1,1,0,0,0,14,37Z"/><path class="cls-2" d="M14,57a1,1,0,0,0,1-1V52a1,1,0,0,0-2,0v4A1,1,0,0,0,14,57Z"/><path class="cls-2" d="M16,13H13v3a1,1,0,0,0,2,0V15h1a1,1,0,0,0,0-2Z"/><path class="cls-2" d="M26,13H22a1,1,0,0,0,0,2h4a1,1,0,0,0,0-2Z"/><path class="cls-2" d="M56,13H52a1,1,0,0,0,0,2h4a1,1,0,0,0,0-2Z"/><path class="cls-2" d="M46,13H42a1,1,0,0,0,0,2h4a1,1,0,0,0,0-2Z"/><path class="cls-2" d="M36,13H32a1,1,0,0,0,0,2h4a1,1,0,0,0,0-2Z"/><path class="cls-2" d="M96,13H92a1,1,0,0,0,0,2h4a1,1,0,0,0,0-2Z"/><path class="cls-2" d="M76,13H72a1,1,0,0,0,0,2h4a1,1,0,0,0,0-2Z"/><path class="cls-2" d="M86,13H82a1,1,0,0,0,0,2h4a1,1,0,0,0,0-2Z"/><path class="cls-2" d="M112,13a1,1,0,0,0,0,2h1v1a1,1,0,0,0,2,0V13Z"/><path class="cls-2" d="M106,13h-4a1,1,0,0,0,0,2h4a1,1,0,0,0,0-2Z"/><path class="cls-2" d="M114,21a1,1,0,0,0-1,1v4a1,1,0,0,0,2,0V22A1,1,0,0,0,114,21Z"/><path class="cls-2" d="M114,31a1,1,0,0,0-1,1v4a1,1,0,0,0,2,0V32A1,1,0,0,0,114,31Z"/><path class="cls-2" d="M114,41a1,1,0,0,0-1,1v4a1,1,0,0,0,2,0V42A1,1,0,0,0,114,41Z"/><path class="cls-2" d="M114,51a1,1,0,0,0-1,1v4a1,1,0,0,0,2,0V52A1,1,0,0,0,114,51Z"/><path class="cls-2" d="M66,13H62a1,1,0,0,0,0,2h4a1,1,0,0,0,0-2Z"/><path class="cls-2" d="M114,111a1,1,0,0,0-1,1v1h-1a1,1,0,0,0,0,2h3v-3A1,1,0,0,0,114,111Z"/><path class="cls-2" d="M114,101a1,1,0,0,0-1,1v4a1,1,0,0,0,2,0v-4A1,1,0,0,0,114,101Z"/><path class="cls-2" d="M106,113h-4a1,1,0,0,0,0,2h4a1,1,0,0,0,0-2Z"/><path class="cls-2" d="M114,81a1,1,0,0,0-1,1v4a1,1,0,0,0,2,0V82A1,1,0,0,0,114,81Z"/><path class="cls-2" d="M114,71a1,1,0,0,0-1,1v4a1,1,0,0,0,2,0V72A1,1,0,0,0,114,71Z"/><path class="cls-2" d="M96,113H92a1,1,0,0,0,0,2h4a1,1,0,0,0,0-2Z"/><path class="cls-2" d="M114,91a1,1,0,0,0-1,1v4a1,1,0,0,0,2,0V92A1,1,0,0,0,114,91Z"/><path class="cls-2" d="M76,113H72a1,1,0,0,0,0,2h4a1,1,0,0,0,0-2Z"/><path class="cls-2" d="M86,113H82a1,1,0,0,0,0,2h4a1,1,0,0,0,0-2Z"/><path class="cls-2" d="M114,61a1,1,0,0,0-1,1v4a1,1,0,0,0,2,0V62A1,1,0,0,0,114,61Z"/><path class="cls-2" d="M14,77a1,1,0,0,0,1-1V72a1,1,0,0,0-2,0v4A1,1,0,0,0,14,77Z"/><path class="cls-2" d="M56,113H52a1,1,0,0,0,0,2h4a1,1,0,0,0,0-2Z"/><path class="cls-2" d="M14,87a1,1,0,0,0,1-1V82a1,1,0,0,0-2,0v4A1,1,0,0,0,14,87Z"/><path class="cls-2" d="M26,113H22a1,1,0,0,0,0,2h4a1,1,0,0,0,0-2Z"/><path class="cls-2" d="M16,113H15v-1a1,1,0,0,0-2,0v3h3a1,1,0,0,0,0-2Z"/><path class="cls-2" d="M14,97a1,1,0,0,0,1-1V92a1,1,0,0,0-2,0v4A1,1,0,0,0,14,97Z"/><path class="cls-2" d="M46,113H42a1,1,0,0,0,0,2h4a1,1,0,0,0,0-2Z"/><path class="cls-2" d="M36,113H32a1,1,0,0,0,0,2h4a1,1,0,0,0,0-2Z"/><path class="cls-2" d="M14,107a1,1,0,0,0,1-1v-4a1,1,0,0,0-2,0v4A1,1,0,0,0,14,107Z"/><path class="cls-2" d="M14,67a1,1,0,0,0,1-1V62a1,1,0,0,0-2,0v4A1,1,0,0,0,14,67Z"/><path class="cls-2" d="M66,113H62a1,1,0,0,0,0,2h4a1,1,0,0,0,0-2Z"/><path class="cls-2" d="M35.34,102.73a10,10,0,0,1-8.83-10V26.88a1.66,1.66,0,0,1,1.66-1.66h0a1.66,1.66,0,0,1,1.66,1.66V92.77a6.6,6.6,0,0,0,5.6,6.62,6.46,6.46,0,0,0,7.3-6.4V90.68L40.38,93.9a1.67,1.67,0,0,1-1.34.68,1.65,1.65,0,0,1-1-.36,1.74,1.74,0,0,1-.24-2.38l5.29-7.23a1.67,1.67,0,0,1,1.34-.68,1.64,1.64,0,0,1,.52.08,1.66,1.66,0,0,1,1.15,1.58V93A9.79,9.79,0,0,1,35.34,102.73Z"/><path class="cls-2" d="M97.37,60.79a10.54,10.54,0,0,1-6.73-2.46,10.54,10.54,0,0,1-6.73,2.46A10.73,10.73,0,0,1,77,58.23a10.51,10.51,0,0,1-13.78,0,10.51,10.51,0,0,1-13.78,0,10.56,10.56,0,0,1-6.88,2.56,11,11,0,0,1-1.76-.16V81.79a5.21,5.21,0,0,1,8.78,3.8v2H60.45c1.84,0,3.19-1.8,3.19-3.79V74.14a19.87,19.87,0,0,0,6.67,1.1A18.43,18.43,0,0,0,77,74.14v9.69a3.79,3.79,0,0,0,3.51,3.79H96.56c1.84,0,3.19-1.8,3.19-3.79V60.54A11.64,11.64,0,0,1,97.37,60.79ZM56.82,69.63v4.45A2.78,2.78,0,0,1,54.16,77H50a2.78,2.78,0,0,1-2.66-2.87V69.63A2.78,2.78,0,0,1,50,66.76h4.15a2.78,2.78,0,0,1,2.66,2.87Zm36.11,4.45A2.78,2.78,0,0,1,90.26,77H86.14a2.78,2.78,0,0,1-2.66-2.87V69.63a2.78,2.78,0,0,1,2.66-2.87h4.13a2.78,2.78,0,0,1,2.66,2.87Z"/><path class="cls-2" d="M103.49,47.25l-8.81-9.5a7.87,7.87,0,0,0-5-2.24H50.36a7.87,7.87,0,0,0-5,2.24l-8.81,9.5-2,2.21a8.66,8.66,0,0,0,6.41,8h0l.38.09h0c.12,0,.23,0,.38.06h.06c.12,0,.23,0,.35,0h.53a3.46,3.46,0,0,0,.59,0,.35.35,0,0,0,.18,0,1.84,1.84,0,0,0,.41-.06l.2,0c.12,0,.23,0,.35-.06s.15,0,.2-.06l.35-.09c.06,0,.12,0,.18-.06s.29-.09.44-.16.06,0,.12,0a2.52,2.52,0,0,0,.5-.25.63.63,0,0,0,.15-.09,3.11,3.11,0,0,0,.32-.19,1.26,1.26,0,0,1,.2-.13l.26-.19s.06,0,.09-.06a8.44,8.44,0,0,0,2.25-2.49,7.9,7.9,0,0,0,13.78-.06,8.78,8.78,0,0,0,2.28,2.56,4.07,4.07,0,0,0,.47.32s.06,0,.09.06a6,6,0,0,0,1,.51s.06,0,.09,0l.53.19c.18.06.35.09.53.16l.12,0c.18,0,.35.09.53.13a3.33,3.33,0,0,0,.56.06h.15l.56,0a3.28,3.28,0,0,0,.56,0h.15c.18,0,.38,0,.56-.06a3.19,3.19,0,0,0,.53-.13l.12,0a3.34,3.34,0,0,0,.53-.16l.53-.19s.06,0,.09,0a10,10,0,0,0,1-.51s.06,0,.09-.06l.47-.32A8.44,8.44,0,0,0,77,53.6a7.87,7.87,0,0,0,13.61.19,8.46,8.46,0,0,0,2.14,2.27,4.06,4.06,0,0,0,.47.32s.06,0,.09.06a6,6,0,0,0,1,.5s.06,0,.09,0l.53.19c.18.06.35.09.53.16l.12,0c.18,0,.35.09.53.13a3.34,3.34,0,0,0,.56.06h.15l.56,0a3.46,3.46,0,0,0,.56,0H98a2.4,2.4,0,0,0,.5-.06h0a3.52,3.52,0,0,0,.56-.13h0a8.66,8.66,0,0,0,6.38-8Zm-42.4,2.24a4.72,4.72,0,1,1-9.42,0l4.39-11.68h7.31Zm22.73,5a4.9,4.9,0,0,1-4.71-5L76.83,37.81h7.31l4.39,11.68A4.89,4.89,0,0,1,83.83,54.51Z"/></svg>